HIERARCHY
ROOT hip
{
  OFFSET 0.00112043 5.09927 -9.65472
  CHANNELS 6 Xposition Yposition Zposition Zrotation Xrotation Yrotation
  JOINT abdomen
  {
    OFFSET 0 -1.186 -1.5018
    CHANNELS 3 Zrotation Xrotation Yrotation
    JOINT abdomen2
    {
      OFFSET 0 9.964 0.2134
      CHANNELS 3 Zrotation Xrotation Yrotation
      JOINT chest
      {
        OFFSET 0 13.134 -3.2573
        CHANNELS 3 Zrotation Xrotation Yrotation
        JOINT neck
        {
          OFFSET 0 20.686 -1.6905
          CHANNELS 3 Zrotation Xrotation Yrotation
          JOINT head
          {
            OFFSET 0 7.238 -0.1237
            CHANNELS 3 Zrotation Xrotation Yrotation
            End Site
            {
              OFFSET 0 0 0
            }
          }
        }
        JOINT lCollar
        {
          OFFSET 1.7069 20.075 5.0056
          CHANNELS 3 Zrotation Xrotation Yrotation
          JOINT lShldr
          {
            OFFSET 13.6458 -0.047 -4.849
            CHANNELS 3 Zrotation Xrotation Yrotation
            JOINT lForeArm
            {
              OFFSET 28.3255 -0.9759 2.2888
              CHANNELS 3 Zrotation Xrotation Yrotation
              JOINT lHand
              {
                OFFSET 22.1583 -0.53 10.8316
                CHANNELS 3 Zrotation Xrotation Yrotation
                JOINT lThumb1
                {
                  OFFSET 0.786 0.112 2.5817
                  CHANNELS 3 Zrotation Xrotation Yrotation
                  JOINT lThumb2
                  {
                    OFFSET 0.3601 -0.878 4.2331
                    CHANNELS 3 Zrotation Xrotation Yrotation
                    JOINT lThumb2_End
                    {
                      OFFSET 1.8127 -1.216 2.2227
                      CHANNELS 3 Zrotation Xrotation Yrotation
                      End Site
                      {
                        OFFSET 0.0181 -0.0122 0.0222
                      }
                    }
                  }
                }
                JOINT lCarpal1
                {
                  OFFSET 0.9571 1.114 1.7695
                  CHANNELS 3 Zrotation Xrotation Yrotation
                  JOINT lIndex1
                  {
                    OFFSET 4.1246 0.487 4.1451
                    CHANNELS 3 Zrotation Xrotation Yrotation
                    JOINT lIndex2
                    {
                      OFFSET 3.4052 -1.454 2.7682
                      CHANNELS 3 Zrotation Xrotation Yrotation
                      JOINT lIndex2_End
                      {
                        OFFSET 1.4531 -1.795 1.2713
                        CHANNELS 3 Zrotation Xrotation Yrotation
                        End Site
                        {
                          OFFSET 0.0145 -0.0179 0.0127
                        }
                      }
                    }
                  }
                  JOINT lMid1
                  {
                    OFFSET 5.6954 0.21 2.1184
                    CHANNELS 3 Zrotation Xrotation Yrotation
                    JOINT lMid2
                    {
                      OFFSET 3.9766 -1.54 2.3863
                      CHANNELS 3 Zrotation Xrotation Yrotation
                      JOINT lMid2_End
                      {
                        OFFSET 1.4042 -1.926 1.125
                        CHANNELS 3 Zrotation Xrotation Yrotation
                        End Site
                        {
                          OFFSET 0.014 -0.0193 0.0113
                        }
                      }
                    }
                  }
                }
                JOINT lCarpal2
                {
                  OFFSET 2.0956 0.66 -0.3894
                  CHANNELS 3 Zrotation Xrotation Yrotation
                  JOINT lRing1
                  {
                    OFFSET 5.0395 -0.09 2.4971
                    CHANNELS 3 Zrotation Xrotation Yrotation
                    JOINT lRing2
                    {
                      OFFSET 3.7921 -1.552 1.4806
                      CHANNELS 3 Zrotation Xrotation Yrotation
                      JOINT lRing2_End
                      {
                        OFFSET 1.4655 -1.808 0.9609
                        CHANNELS 3 Zrotation Xrotation Yrotation
                        End Site
                        {
                          OFFSET 0.0147 -0.0181 0.0096
                        }
                      }
                    }
                  }
                  JOINT lPinky1
                  {
                    OFFSET 4.9141 -1.269 0.3591
                    CHANNELS 3 Zrotation Xrotation Yrotation
                    JOINT lPinky2
                    {
                      OFFSET 3.1477 -1.685 0.8462
                      CHANNELS 3 Zrotation Xrotation Yrotation
                      JOINT lPinky2_End
                      {
                        OFFSET 0.8055 -1.585 0.7955
                        CHANNELS 3 Zrotation Xrotation Yrotation
                        End Site
                        {
                          OFFSET 0.0081 -0.0158 0.008
                        }
                      }
                    }
                  }
                }
              }
            }
          }
        }
        JOINT rCollar
        {
          OFFSET -1.7069 20.075 5.0056
          CHANNELS 3 Zrotation Xrotation Yrotation
          JOINT rShldr
          {
            OFFSET -13.6458 -0.047 -4.849
            CHANNELS 3 Zrotation Xrotation Yrotation
            JOINT rForeArm
            {
              OFFSET -28.3255 -0.9759 2.2888
              CHANNELS 3 Zrotation Xrotation Yrotation
              JOINT rHand
              {
                OFFSET -22.1583 -0.53 10.8316
                CHANNELS 3 Zrotation Xrotation Yrotation
                JOINT rThumb1
                {
                  OFFSET -0.786 0.112 2.5817
                  CHANNELS 3 Zrotation Xrotation Yrotation
                  JOINT rThumb2
                  {
                    OFFSET -0.3601 -0.878 4.2331
                    CHANNELS 3 Zrotation Xrotation Yrotation
                    JOINT rThumb2_End
                    {
                      OFFSET -1.8127 -1.216 2.2227
                      CHANNELS 3 Zrotation Xrotation Yrotation
                      End Site
                      {
                        OFFSET -0.0181 -0.0122 0.0222
                      }
                    }
                  }
                }
                JOINT rCarpal1
                {
                  OFFSET -0.9571 1.114 1.7695
                  CHANNELS 3 Zrotation Xrotation Yrotation
                  JOINT rIndex1
                  {
                    OFFSET -4.1246 0.487 4.1451
                    CHANNELS 3 Zrotation Xrotation Yrotation
                    JOINT rIndex2
                    {
                      OFFSET -3.4052 -1.454 2.7682
                      CHANNELS 3 Zrotation Xrotation Yrotation
                      JOINT rIndex2_End
                      {
                        OFFSET -1.4531 -1.795 1.2713
                        CHANNELS 3 Zrotation Xrotation Yrotation
                        End Site
                        {
                          OFFSET -0.0145 -0.018 0.0127
                        }
                      }
                    }
                  }
                  JOINT rMid1
                  {
                    OFFSET -5.6954 0.21 2.1184
                    CHANNELS 3 Zrotation Xrotation Yrotation
                    JOINT rMid2
                    {
                      OFFSET -3.9766 -1.54 2.3863
                      CHANNELS 3 Zrotation Xrotation Yrotation
                      JOINT rMid2_End
                      {
                        OFFSET -1.4042 -1.926 1.125
                        CHANNELS 3 Zrotation Xrotation Yrotation
                        End Site
                        {
                          OFFSET -0.014 -0.0193 0.0113
                        }
                      }
                    }
                  }
                }
                JOINT rCarpal2
                {
                  OFFSET -2.0956 0.66 -0.3894
                  CHANNELS 3 Zrotation Xrotation Yrotation
                  JOINT rRing1
                  {
                    OFFSET -5.0395 -0.09 2.4971
                    CHANNELS 3 Zrotation Xrotation Yrotation
                    JOINT rRing2
                    {
                      OFFSET -3.7921 -1.552 1.4806
                      CHANNELS 3 Zrotation Xrotation Yrotation
                      JOINT rRing2_End
                      {
                        OFFSET -1.4655 -1.808 0.9609
                        CHANNELS 3 Zrotation Xrotation Yrotation
                        End Site
                        {
                          OFFSET -0.0147 -0.0181 0.0096
                        }
                      }
                    }
                  }
                  JOINT rPinky1
                  {
                    OFFSET -4.9141 -1.269 0.3592
                    CHANNELS 3 Zrotation Xrotation Yrotation
                    JOINT rPinky2
                    {
                      OFFSET -3.1477 -1.685 0.8462
                      CHANNELS 3 Zrotation Xrotation Yrotation
                      JOINT rPinky2_End
                      {
                        OFFSET -0.8055 -1.585 0.7955
                        CHANNELS 3 Zrotation Xrotation Yrotation
                        End Site
                        {
                          OFFSET -0.0081 -0.0158 0.008
                        }
                      }
                    }
                  }
                }
              }
            }
          }
        }
      }
    }
  }
  JOINT lThigh
  {
    OFFSET 8.367 -8.2066 0.5982
    CHANNELS 3 Zrotation Xrotation Yrotation
    JOINT lShin
    {
      OFFSET 2.1923 -43.463 -0.4932
      CHANNELS 3 Zrotation Xrotation Yrotation
      JOINT lFoot
      {
        OFFSET 0.7333 -45.8593 -2.6451
        CHANNELS 3 Zrotation Xrotation Yrotation
        End Site
        {
          OFFSET 2.6618 -4.2699 12.3931
        }
      }
    }
  }
  JOINT rThigh
  {
    OFFSET -8.367 -8.2066 0.5982
    CHANNELS 3 Zrotation Xrotation Yrotation
    JOINT rShin
    {
      OFFSET -2.1923 -43.463 -0.4931
      CHANNELS 3 Zrotation Xrotation Yrotation
      JOINT rFoot
      {
        OFFSET -0.7333 -45.8593 -2.6451
        CHANNELS 3 Zrotation Xrotation Yrotation
        End Site
        {
          OFFSET -2.6618 -4.2699 12.3931
        }
      }
    }
  }
}
MOTION
Frames:	4
Frame Time:	0.0333333
-0.0700973 -4.71216 6.42134 0 22.6474 -0 -0.246703 1.25162 -0.180232 -0.489641 2.50399 -0.355197 -0.489641 2.50399 -0.355197 1.97839e-005 6.99667 1.17324e-005 1.69818e-007 9.45005 7.96906e-008 5.51572 14.2662 5.21787 -76.2534 -1.8177 7.2003 -26.1454 7.07033 21.7481 5.74923 3.18247 -28.5856 8.49651e-007 2.37388e-006 -2.14755e-006 1.59028e-015 9.93923e-016 -6.36111e-015 1.59028e-015 -1.39149e-015 -0 1.59028e-015 -3.97569e-016 -0 8.49651e-007 2.37388e-006 -2.14755e-006 9.93923e-016 9.93923e-016 -6.36111e-015 2.18663e-015 -1.39149e-015 -0 8.49651e-007 2.37388e-006 -2.14755e-006 9.93923e-016 9.93923e-016 -6.36111e-015 2.18663e-015 -1.39149e-015 -0 1.59028e-015 -3.97569e-016 -0 8.49651e-007 2.37388e-006 -2.14755e-006 9.93923e-016 9.93923e-016 -6.36111e-015 2.18663e-015 -1.39149e-015 -0 8.49651e-007 2.37388e-006 -2.14755e-006 9.93923e-016 9.93923e-016 -6.36111e-015 2.18663e-015 -1.39149e-015 -0 2.06467 3.51062 7.01636 72.1169 29.5063 16.1956 -2.38288 7.08747 20.8725 8.92727 -29.0024 -2.97513 4.37326e-015 -9.54166e-015 1.59028e-015 2.78972e-006 2.54189e-006 1.03595e-006 1.41492e-006 -1.54063e-006 -9.8446e-007 2.38542e-015 -6.36111e-015 1.59028e-015 7.95139e-016 0 6.36111e-015 2.78972e-006 2.54189e-006 1.03595e-006 1.41492e-006 -1.54063e-006 -9.8446e-007 7.95139e-016 0 6.36111e-015 2.78972e-006 2.54189e-006 1.03595e-006 1.41492e-006 -1.54063e-006 -9.8446e-007 2.38542e-015 -6.36111e-015 1.59028e-015 7.95139e-016 0 6.36111e-015 2.78972e-006 2.54189e-006 1.03595e-006 1.41492e-006 -1.54063e-006 -9.8446e-007 7.95139e-016 0 6.36111e-015 2.78972e-006 2.54189e-006 1.03595e-006 1.41492e-006 -1.54063e-006 -9.8446e-007 -0.819149 -24.1536 14.4445 38.7823 78.5043 -35.989 -36.5532 65.7685 58.4984 0.894142 -26.5813 -15.1196 -84.3322 83.4445 81.4232 11.6712 37.9475 -15.7243 
-0.070097 -4.69672 6.47956 0 22.2969 -0 -0.247599 1.53851 -0.179989 -0.490626 3.07786 -0.353515 -0.490627 3.07785 -0.353515 1.83582e-005 6.99668 -6.50855e-006 -3.80049e-008 9.90092 -1.11739e-007 5.39001 13.3705 5.1455 -76.2534 -1.81772 7.2003 -25.9659 6.99948 21.7435 5.53927 3.0447 -28.5978 3.97569e-016 5.96354e-016 -0 9.93923e-016 5.96354e-016 -6.36111e-015 5.96354e-016 7.95139e-016 -0 -3.97569e-016 -9.93923e-016 -0 9.93923e-016 -1.98785e-016 -0 3.97569e-016 5.96354e-016 -6.36111e-015 1.19271e-015 1.19271e-015 -0 9.93923e-016 -1.98785e-016 -0 3.97569e-016 5.96354e-016 -6.36111e-015 1.19271e-015 1.19271e-015 -0 -3.97569e-016 -9.93923e-016 -0 9.93923e-016 -1.98785e-016 -0 3.97569e-016 5.96354e-016 -6.36111e-015 1.19271e-015 1.19271e-015 -0 9.93923e-016 -1.98785e-016 -0 3.97569e-016 5.96354e-016 -6.36111e-015 1.19271e-015 1.19271e-015 -0 2.55147 3.24574 7.0404 71.0599 29.3696 16.8803 -2.39787 7.10356 20.8756 9.29833 -28.2894 -2.31463 -2.78299e-015 -6.36111e-015 3.18055e-015 -1.76206e-007 2.36057e-006 -2.79964e-007 1.19271e-015 0 -0 -1.98785e-015 -3.18055e-015 -0 -3.57812e-015 0 4.77083e-015 -1.76206e-007 2.36057e-006 -2.79964e-007 -1.59028e-015 3.18055e-015 -0 -3.57812e-015 0 4.77083e-015 -1.76206e-007 2.36057e-006 -2.79964e-007 -1.59028e-015 3.18055e-015 -0 -1.98785e-015 -3.18055e-015 -0 -3.57812e-015 0 4.77083e-015 -1.76206e-007 2.36057e-006 -2.79964e-007 -1.59028e-015 3.18055e-015 -0 -3.57812e-015 0 4.77083e-015 -1.76206e-007 2.36057e-006 -2.79964e-007 -1.59028e-015 3.18055e-015 -0 -0.841222 -23.6612 14.4116 38.6533 78.477 -35.8646 -36.5487 65.7671 58.4938 0.924179 -26.0892 -15.0791 -84.0242 83.4431 81.1205 11.6696 37.9423 -15.7222 
-0.0700938 -4.68141 6.53762 0 21.9464 -0 -0.248456 1.82511 -0.179722 -0.491554 3.65099 -0.351788 -0.491554 3.65099 -0.351787 -1.59184e-006 6.99695 -2.29149e-006 -4.93496e-008 10.3518 -5.15365e-008 5.26364 12.475 5.07143 -76.2534 -1.81771 7.2003 -25.7861 6.92929 21.7389 5.32931 2.90697 -28.6105 -8.4654e-007 -2.14329e-006 -2.37137e-006 -8.61299e-007 -2.59945e-006 6.65794e-006 1.39149e-015 3.57812e-015 -9.54166e-015 -1.98785e-016 3.97569e-016 6.36111e-015 -8.4654e-007 -2.14329e-006 -2.37137e-006 -8.61299e-007 -2.59945e-006 6.65794e-006 -3.97569e-016 2.5842e-015 -6.36111e-015 -8.4654e-007 -2.14329e-006 -2.37137e-006 -8.61299e-007 -2.59945e-006 6.65794e-006 -3.97569e-016 2.5842e-015 -6.36111e-015 -1.98785e-016 3.97569e-016 6.36111e-015 -8.4654e-007 -2.14329e-006 -2.37137e-006 -8.61299e-007 -2.59945e-006 6.65794e-006 -3.97569e-016 2.5842e-015 -6.36111e-015 -8.4654e-007 -2.14329e-006 -2.37137e-006 -8.61299e-007 -2.59945e-006 6.65794e-006 -3.97569e-016 2.5842e-015 -6.36111e-015 3.03825 2.98098 7.06669 70.0066 29.222 17.5608 -2.41288 7.11962 20.8786 9.6576 -27.5729 -1.66385 -2.17705e-006 -2.19046e-006 2.68328e-008 6.43591e-006 2.75664e-006 -2.053e-007 1.17302e-007 1.03539e-006 -1.32218e-006 -2.78299e-015 6.36111e-015 -1.59028e-015 -2.17705e-006 -2.19046e-006 2.68328e-008 6.43591e-006 2.75664e-006 -2.053e-007 1.17302e-007 1.03539e-006 -1.32218e-006 -2.17705e-006 -2.19046e-006 2.68328e-008 6.43591e-006 2.75664e-006 -2.053e-007 1.17302e-007 1.03539e-006 -1.32218e-006 -2.78299e-015 6.36111e-015 -1.59028e-015 -2.17705e-006 -2.19046e-006 2.68328e-008 6.43591e-006 2.75664e-006 -2.053e-007 1.17302e-007 1.03539e-006 -1.32218e-006 -2.17705e-006 -2.19046e-006 2.68328e-008 6.43591e-006 2.75664e-006 -2.053e-007 1.17302e-007 1.03539e-006 -1.32218e-006 -0.86359 -23.1816 14.3781 38.5636 78.4595 -35.7765 -36.544 65.7657 58.4891 0.954417 -25.6085 -15.0382 -83.8134 83.4433 80.9121 11.668 37.937 -15.72 
-0.0700856 -4.66627 6.59551 0 21.596 -0 -0.249268 2.11111 -0.179429 -0.492415 4.22296 -0.350014 -0.492415 4.22296 -0.350015 -3.49794e-006 6.99694 -2.4054e-006 -4.88793e-007 10.8026 -2.77036e-007 5.13656 11.58 4.99562 -76.2534 -1.81771 7.20031 -25.6062 6.85988 21.7344 5.11934 2.76931 -28.6237 -3.97569e-016 -9.93923e-016 3.18055e-015 3.31043e-032 -5.96354e-016 3.18055e-015 1.98785e-016 3.97569e-016 3.18055e-015 -3.97569e-016 -1.39149e-015 3.18055e-015 -3.97569e-016 5.96354e-016 9.54166e-015 -1.19271e-015 -3.97569e-016 3.18055e-015 -1.39149e-015 0 6.36111e-015 -3.97569e-016 5.96354e-016 9.54166e-015 -1.19271e-015 -3.97569e-016 3.18055e-015 -1.39149e-015 0 6.36111e-015 -3.97569e-016 -1.39149e-015 3.18055e-015 -3.97569e-016 5.96354e-016 9.54166e-015 -1.19271e-015 -3.97569e-016 3.18055e-015 -1.39149e-015 0 6.36111e-015 -3.97569e-016 5.96354e-016 9.54166e-015 -1.19271e-015 -3.97569e-016 3.18055e-015 -1.39149e-015 0 6.36111e-015 3.52496 2.71648 7.09523 68.9574 29.0636 18.2368 -2.42788 7.13566 20.8816 10.0053 -26.8531 -1.02257 1.59028e-015 6.36111e-015 -1.59028e-015 1.29184e-007 1.03041e-006 -1.32404e-006 -7.55382e-015 -6.36111e-015 -0 1.59028e-015 6.36111e-015 -1.59028e-015 2.38542e-015 -6.36111e-015 3.18055e-015 1.29184e-007 1.03041e-006 -1.32404e-006 -6.75868e-015 -6.36111e-015 1.59028e-015 2.38542e-015 -6.36111e-015 3.18055e-015 1.29184e-007 1.03041e-006 -1.32404e-006 -6.75868e-015 -6.36111e-015 1.59028e-015 1.59028e-015 6.36111e-015 -1.59028e-015 2.38542e-015 -6.36111e-015 3.18055e-015 1.29184e-007 1.03041e-006 -1.32404e-006 -6.75868e-015 -6.36111e-015 1.59028e-015 2.38542e-015 -6.36111e-015 3.18055e-015 1.29184e-007 1.03041e-006 -1.32404e-006 -6.75868e-015 -6.36111e-015 1.59028e-015 -0.885264 -22.6957 14.3454 38.455 78.4371 -35.671 -36.5394 65.7644 58.4845 0.984853 -25.1406 -14.997 -83.7093 83.4452 80.8072 11.6664 37.932 -15.718 
